<svg width="360" height="77" viewBox="0 0 360 77" fill="none" xmlns="http://www.w3.org/2000/svg">
<path fill-rule="evenodd" clip-rule="evenodd" d="M0 11.7269L15 8.72693C30 4.72693 60 -2.27307 90 0.726926C120 4.72693 150 18.7269 180 22.7269C210 26.7269 240 18.7269 270 17.7269C300 15.7269 330 18.7269 345 20.7269L360 22.7269V76.7269H345C330 76.7269 300 76.7269 270 76.7269C240 76.7269 210 76.7269 180 76.7269C150 76.7269 120 76.7269 90 76.7269C60 76.7269 30 76.7269 15 76.7269H0V11.7269Z" fill="#FAFAFA"/>
</svg>
