<svg width="500" height="409" viewBox="0 0 500 409" fill="none" xmlns="http://www.w3.org/2000/svg">
<g clip-path="url(#clip0_108_297)">
<g filter="url(#filter0_dddd_108_297)">
<path d="M231.824 338.213C231.824 338.213 217.42 341.853 203.22 323.14" stroke="#3F3F45" stroke-width="4.65822" stroke-linecap="round" stroke-linejoin="round"/>
<path d="M159.931 279.862L191.734 287.667C198.009 289.207 203.415 293.177 206.763 298.702C210.112 304.228 211.128 310.857 209.589 317.132L206.75 328.699C203.854 340.496 196.391 350.659 186.002 356.954C175.613 363.248 163.15 365.157 151.353 362.262L140.369 359.566C131.331 357.347 123.545 351.629 118.723 343.669C113.9 335.71 112.437 326.161 114.654 317.123L117.488 305.579C119.706 296.541 125.424 288.753 133.384 283.931C141.343 279.108 150.893 277.644 159.931 279.862Z" fill="#E6E6E8"/>
<path opacity="0.71" d="M206.733 328.71L209.573 317.14C210.354 313.968 210.482 310.67 209.95 307.447L204.07 308.847C204.07 308.847 198.443 366.53 140.353 359.57L151.333 362.267C175.8 368.273 200.727 353.17 206.733 328.71Z" fill="#C2C2C4"/>
<path d="M269.27 216.014H263.65C253.328 216.014 244.96 224.381 244.96 234.704V240.324C244.96 250.646 253.328 259.014 263.65 259.014H269.27C279.592 259.014 287.96 250.646 287.96 240.324V234.704C287.96 224.381 279.592 216.014 269.27 216.014Z" fill="#C2C2C4"/>
<path d="M165.6 152.08H183.293C208.468 152.08 232.612 162.081 250.413 179.881C268.215 197.682 278.216 221.826 278.217 247C278.217 255.376 276.568 263.671 273.362 271.41C270.157 279.148 265.459 286.18 259.536 292.103C253.613 298.026 246.582 302.724 238.843 305.929C231.104 309.134 222.81 310.784 214.433 310.784H134.457C126.08 310.785 117.785 309.136 110.045 305.931C102.306 302.726 95.2735 298.028 89.3498 292.105C83.4262 286.182 78.7274 279.15 75.5217 271.411C72.316 263.672 70.6663 255.377 70.6667 247C70.6672 234.534 73.1231 222.19 77.8943 210.673C82.6654 199.156 89.6584 188.692 98.4739 179.878C107.289 171.064 117.755 164.072 129.272 159.303C140.79 154.533 153.134 152.079 165.6 152.08Z" fill="#F9F9F9"/>
<path d="M190.867 98.7434C190.867 98.7434 183.124 113.743 194.254 128.253C205.384 142.763 193.85 150.507 188.254 151.477C181.897 152.299 175.461 152.299 169.104 151.477C169.104 151.477 147.334 143.733 155.557 121.477C163.78 99.2201 190.867 98.7434 190.867 98.7434Z" fill="#EFEFEF"/>
<path d="M201.89 102.157C206.535 102.157 210.3 98.3915 210.3 93.7468C210.3 89.1021 206.535 85.3368 201.89 85.3368C197.246 85.3368 193.48 89.1021 193.48 93.7468C193.48 98.3915 197.246 102.157 201.89 102.157Z" fill="#EFEFEF"/>
<path d="M183.293 152.08H165.6C154.299 152.077 143.09 154.109 132.51 158.08C127.68 160.587 123.467 164.134 121.44 169.147C114.963 185.167 100.123 214.387 170.407 200.597C247.767 185.417 254.667 200.597 266.46 240.597C275.76 272.134 251.743 296.984 214.433 310.79C249.513 310.79 278.217 282.09 278.217 247.01C278.217 194.797 235.5 152.08 183.293 152.08Z" fill="#DEDEE0"/>
<path d="M160.877 124C156.577 131.133 155.613 137.073 156.43 141.09C159.513 149.173 169.097 151.463 169.097 151.463C175.454 152.285 181.89 152.285 188.247 151.463C193.85 150.493 205.38 142.753 194.247 128.24C183.113 113.727 190.86 98.73 190.86 98.73C190.86 98.73 190.637 98.73 190.233 98.7566C179.1 106.667 172.11 105.367 160.877 124Z" fill="#DEDEE0"/>
<path d="M210.3 93.7468C210.302 91.5382 209.432 89.4181 207.88 87.8468C203.697 90.1268 198.843 92.9668 193.88 96.2801C194.485 98.1957 195.755 99.8316 197.461 100.892C199.167 101.952 201.196 102.367 203.182 102.061C205.167 101.754 206.977 100.748 208.285 99.223C209.592 97.6981 210.311 95.7555 210.31 93.7468H210.3Z" fill="#DEDEE0"/>
<path opacity="0.42" d="M214.952 207.856L156.725 210.265C134.52 211.184 117.264 229.93 118.183 252.135L118.443 258.41C119.362 280.615 138.108 297.87 160.313 296.951L218.539 294.541C240.744 293.622 258 274.877 257.081 252.672L256.821 246.397C255.902 224.192 237.157 206.937 214.952 207.856Z" fill="#5A88B7"/>
<path d="M147.113 182.637C147.113 182.637 179.707 163.747 219.8 175.97V178.76C219.8 178.76 183.8 167.87 149.013 184.477L147.113 182.637Z" fill="#3F3F45"/>
<path d="M185.253 182.487C190.102 182.487 194.033 178.556 194.033 173.707C194.033 168.858 190.102 164.927 185.253 164.927C180.404 164.927 176.473 168.858 176.473 173.707C176.473 178.556 180.404 182.487 185.253 182.487Z" fill="#E14D46"/>
<path d="M221.97 184.49C225.584 184.49 228.514 181.561 228.514 177.947C228.514 174.333 225.584 171.404 221.97 171.404C218.357 171.404 215.427 174.333 215.427 177.947C215.427 181.561 218.357 184.49 221.97 184.49Z" fill="#E68C4E"/>
<path d="M147.113 190.083C150.727 190.083 153.657 187.154 153.657 183.54C153.657 179.926 150.727 176.997 147.113 176.997C143.5 176.997 140.57 179.926 140.57 183.54C140.57 187.154 143.5 190.083 147.113 190.083Z" fill="#E68C4E"/>
<path d="M179.29 363.667C179.29 363.667 155.397 367.437 137.49 333.45" stroke="#3F3F45" stroke-width="4.65822" stroke-linecap="round" stroke-linejoin="round"/>
<path d="M174.503 375.093C179.233 375.093 183.067 371.259 183.067 366.53C183.067 361.8 179.233 357.967 174.503 357.967C169.774 357.967 165.94 361.8 165.94 366.53C165.94 371.259 169.774 375.093 174.503 375.093Z" fill="#EFEFEF"/>
<path d="M225.813 344.743C230.543 344.743 234.377 340.91 234.377 336.18C234.377 331.451 230.543 327.617 225.813 327.617C221.084 327.617 217.25 331.451 217.25 336.18C217.25 340.91 221.084 344.743 225.813 344.743Z" fill="#EFEFEF"/>
<path d="M82.2866 221.3H76.6666C66.3444 221.3 57.9766 229.668 57.9766 239.99V245.61C57.9766 255.932 66.3444 264.3 76.6666 264.3H82.2866C92.6088 264.3 100.977 255.932 100.977 245.61V239.99C100.977 229.668 92.6088 221.3 82.2866 221.3Z" fill="#C2C2C4"/>
<path opacity="0.38" d="M257.093 252.667L256.833 246.393C255.916 224.28 237.076 206.937 214.963 207.853L212.963 207.937C232.963 209.457 249.276 225.867 250.126 246.393L250.386 252.667C251.303 274.78 233.96 293.623 211.846 294.54L155.626 296.873C157.192 296.995 158.764 297.023 160.333 296.957L218.56 294.547C240.666 293.613 258 274.77 257.093 252.667Z" fill="#334A72"/>
<path d="M167.407 257.203C173.46 257.203 178.367 251.158 178.367 243.7C178.367 236.242 173.46 230.197 167.407 230.197C161.354 230.197 156.447 236.242 156.447 243.7C156.447 251.158 161.354 257.203 167.407 257.203Z" fill="#3F3F45"/>
<path d="M170.487 245.56C172.545 245.56 174.213 243.298 174.213 240.507C174.213 237.716 172.545 235.454 170.487 235.454C168.428 235.454 166.76 237.716 166.76 240.507C166.76 243.298 168.428 245.56 170.487 245.56Z" fill="#E8E8EA"/>
<path d="M214 256.823C220.053 256.823 224.96 250.778 224.96 243.32C224.96 235.862 220.053 229.817 214 229.817C207.947 229.817 203.04 235.862 203.04 243.32C203.04 250.778 207.947 256.823 214 256.823Z" fill="#3F3F45"/>
<path d="M217.08 245.18C219.138 245.18 220.807 242.918 220.807 240.127C220.807 237.336 219.138 235.073 217.08 235.073C215.022 235.073 213.354 237.336 213.354 240.127C213.354 242.918 215.022 245.18 217.08 245.18Z" fill="#E8E8EA"/>
<path d="M176.742 267.071L204.615 265.918C205.222 265.893 205.814 266.11 206.26 266.521C206.707 266.932 206.972 267.504 206.997 268.111C207.153 271.858 205.813 275.513 203.273 278.272C200.733 281.031 197.201 282.669 193.454 282.824L189.245 282.998C185.502 283.153 181.851 281.815 179.095 279.278C176.339 276.741 174.704 273.213 174.549 269.471L174.549 269.454C174.523 268.847 174.74 268.255 175.152 267.808C175.563 267.362 176.135 267.096 176.742 267.071Z" fill="#59595B"/>
</g>
</g>
<g filter="url(#filter1_dddd_108_297)">
<path d="M346.376 97.0043C331.061 122.067 307.718 134.845 297.96 138.102C324.654 144.557 362.999 132.834 378.834 126.166C374.396 106.003 361.69 71.9419 346.376 97.0043Z" fill="#FAFAFA"/>
<rect x="315.957" y="60" width="111.75" height="84" rx="42" fill="#FAFAFA"/>
<path d="M362.606 119.369C361.717 119.369 360.965 119.062 360.35 118.446C359.735 117.831 359.427 117.1 359.427 116.252C359.427 115.391 359.728 114.646 360.33 114.017C360.945 113.388 361.704 113.073 362.606 113.073C363.481 113.073 364.219 113.388 364.821 114.017C365.422 114.646 365.723 115.391 365.723 116.252C365.723 117.1 365.422 117.831 364.821 118.446C364.219 119.062 363.481 119.369 362.606 119.369ZM371.907 119.369C371.018 119.369 370.266 119.062 369.651 118.446C369.036 117.831 368.728 117.1 368.728 116.252C368.728 115.391 369.029 114.646 369.63 114.017C370.246 113.388 371.004 113.073 371.907 113.073C372.782 113.073 373.52 113.388 374.122 114.017C374.723 114.646 375.024 115.391 375.024 116.252C375.024 117.1 374.723 117.831 374.122 118.446C373.52 119.062 372.782 119.369 371.907 119.369ZM381.207 119.369C380.319 119.369 379.567 119.062 378.952 118.446C378.336 117.831 378.029 117.1 378.029 116.252C378.029 115.391 378.329 114.646 378.931 114.017C379.546 113.388 380.305 113.073 381.207 113.073C382.082 113.073 382.821 113.388 383.422 114.017C384.024 114.646 384.325 115.391 384.325 116.252C384.325 117.1 384.024 117.831 383.422 118.446C382.821 119.062 382.082 119.369 381.207 119.369Z" fill="url(#paint0_linear_108_297)"/>
</g>
<defs>
<filter id="filter0_dddd_108_297" x="-14.0234" y="25.3368" width="373.983" height="445.756" filterUnits="userSpaceOnUse" color-interpolation-filters="sRGB">
<feFlood flood-opacity="0" result="BackgroundImageFix"/>
<feColorMatrix in="SourceAlpha" type="matrix" values="0 0 0 0 0 0 0 0 0 0 0 0 0 0 0 0 0 0 127 0" result="hardAlpha"/>
<feOffset dx="24"/>
<feGaussianBlur stdDeviation="24"/>
<feComposite in2="hardAlpha" operator="out"/>
<feColorMatrix type="matrix" values="0 0 0 0 0.152941 0 0 0 0 0.152941 0 0 0 0 0.164706 0 0 0 0.04 0"/>
<feBlend mode="normal" in2="BackgroundImageFix" result="effect1_dropShadow_108_297"/>
<feColorMatrix in="SourceAlpha" type="matrix" values="0 0 0 0 0 0 0 0 0 0 0 0 0 0 0 0 0 0 127 0" result="hardAlpha"/>
<feOffset dx="-24"/>
<feGaussianBlur stdDeviation="24"/>
<feComposite in2="hardAlpha" operator="out"/>
<feColorMatrix type="matrix" values="0 0 0 0 0.152941 0 0 0 0 0.152941 0 0 0 0 0.164706 0 0 0 0.04 0"/>
<feBlend mode="normal" in2="effect1_dropShadow_108_297" result="effect2_dropShadow_108_297"/>
<feColorMatrix in="SourceAlpha" type="matrix" values="0 0 0 0 0 0 0 0 0 0 0 0 0 0 0 0 0 0 127 0" result="hardAlpha"/>
<feOffset dy="32"/>
<feGaussianBlur stdDeviation="32"/>
<feComposite in2="hardAlpha" operator="out"/>
<feColorMatrix type="matrix" values="0 0 0 0 0.152941 0 0 0 0 0.152941 0 0 0 0 0.164706 0 0 0 0.04 0"/>
<feBlend mode="normal" in2="effect2_dropShadow_108_297" result="effect3_dropShadow_108_297"/>
<feColorMatrix in="SourceAlpha" type="matrix" values="0 0 0 0 0 0 0 0 0 0 0 0 0 0 0 0 0 0 127 0" result="hardAlpha"/>
<feOffset dy="-20"/>
<feGaussianBlur stdDeviation="20"/>
<feComposite in2="hardAlpha" operator="out"/>
<feColorMatrix type="matrix" values="0 0 0 0 0.152941 0 0 0 0 0.152941 0 0 0 0 0.164706 0 0 0 0.04 0"/>
<feBlend mode="normal" in2="effect3_dropShadow_108_297" result="effect4_dropShadow_108_297"/>
<feBlend mode="normal" in="SourceGraphic" in2="effect4_dropShadow_108_297" result="shape"/>
</filter>
<filter id="filter1_dddd_108_297" x="225.96" y="0" width="273.746" height="240" filterUnits="userSpaceOnUse" color-interpolation-filters="sRGB">
<feFlood flood-opacity="0" result="BackgroundImageFix"/>
<feColorMatrix in="SourceAlpha" type="matrix" values="0 0 0 0 0 0 0 0 0 0 0 0 0 0 0 0 0 0 127 0" result="hardAlpha"/>
<feOffset dx="24"/>
<feGaussianBlur stdDeviation="24"/>
<feComposite in2="hardAlpha" operator="out"/>
<feColorMatrix type="matrix" values="0 0 0 0 0.152941 0 0 0 0 0.152941 0 0 0 0 0.164706 0 0 0 0.04 0"/>
<feBlend mode="normal" in2="BackgroundImageFix" result="effect1_dropShadow_108_297"/>
<feColorMatrix in="SourceAlpha" type="matrix" values="0 0 0 0 0 0 0 0 0 0 0 0 0 0 0 0 0 0 127 0" result="hardAlpha"/>
<feOffset dx="-24"/>
<feGaussianBlur stdDeviation="24"/>
<feComposite in2="hardAlpha" operator="out"/>
<feColorMatrix type="matrix" values="0 0 0 0 0.152941 0 0 0 0 0.152941 0 0 0 0 0.164706 0 0 0 0.04 0"/>
<feBlend mode="normal" in2="effect1_dropShadow_108_297" result="effect2_dropShadow_108_297"/>
<feColorMatrix in="SourceAlpha" type="matrix" values="0 0 0 0 0 0 0 0 0 0 0 0 0 0 0 0 0 0 127 0" result="hardAlpha"/>
<feOffset dy="32"/>
<feGaussianBlur stdDeviation="32"/>
<feComposite in2="hardAlpha" operator="out"/>
<feColorMatrix type="matrix" values="0 0 0 0 0.152941 0 0 0 0 0.152941 0 0 0 0 0.164706 0 0 0 0.04 0"/>
<feBlend mode="normal" in2="effect2_dropShadow_108_297" result="effect3_dropShadow_108_297"/>
<feColorMatrix in="SourceAlpha" type="matrix" values="0 0 0 0 0 0 0 0 0 0 0 0 0 0 0 0 0 0 127 0" result="hardAlpha"/>
<feOffset dy="-20"/>
<feGaussianBlur stdDeviation="20"/>
<feComposite in2="hardAlpha" operator="out"/>
<feColorMatrix type="matrix" values="0 0 0 0 0.152941 0 0 0 0 0.152941 0 0 0 0 0.164706 0 0 0 0.04 0"/>
<feBlend mode="normal" in2="effect3_dropShadow_108_297" result="effect4_dropShadow_108_297"/>
<feBlend mode="normal" in="SourceGraphic" in2="effect4_dropShadow_108_297" result="shape"/>
</filter>
<linearGradient id="paint0_linear_108_297" x1="363.553" y1="78" x2="390.552" y2="84.7445" gradientUnits="userSpaceOnUse">
<stop stop-color="#F4873D"/>
<stop offset="1" stop-color="#F43D3D"/>
<stop offset="1" stop-color="#F43D3D"/>
</linearGradient>
<clipPath id="clip0_108_297">
<rect width="360" height="360" fill="white" transform="translate(0 49)"/>
</clipPath>
</defs>
</svg>
