<svg width="96" height="96" viewBox="0 0 96 96" fill="none" xmlns="http://www.w3.org/2000/svg">
<path d="M26 40C26 27.85 35.85 18 48 18C60.15 18 70 27.85 70 40C70 52.15 60.15 62 48 62C35.85 62 26 52.15 26 40Z" fill="url(#paint0_linear_126_287)"/>
<path fill-rule="evenodd" clip-rule="evenodd" d="M62 68.782C72.656 63.588 80 52.652 80 40C80 22.326 65.674 8 48 8C30.328 8 16 22.326 16 40C16 52.654 23.344 63.592 34.002 68.784V86C34.0019 86.3621 34.1002 86.7174 34.2862 87.028C34.4723 87.3387 34.7392 87.5929 35.0585 87.7638C35.3777 87.9346 35.7374 88.0155 36.099 87.998C36.4607 87.9804 36.8108 87.865 37.112 87.664L48 80.404L58.89 87.664C59.1912 87.865 59.5413 87.9804 59.903 87.998C60.2646 88.0155 60.6243 87.9346 60.9435 87.7638C61.2628 87.5929 61.5297 87.3387 61.7157 87.028C61.9018 86.7174 62 86.3621 62 86V68.782ZM48 68C63.464 68 76 55.464 76 40C76 24.536 63.464 12 48 12C32.536 12 20 24.536 20 40C20 55.464 32.536 68 48 68Z" fill="url(#paint1_linear_126_287)"/>
<g clip-path="url(#clip0_126_287)">
<path d="M40.2943 52.8755C39.6164 53.2233 38.8473 52.6139 38.9842 51.8359L40.4418 43.5296L34.2551 37.6361C33.6773 37.0847 33.9776 36.0767 34.752 35.9678L43.3534 34.7456L47.1887 27.147C47.5347 26.4621 48.4707 26.4621 48.8166 27.147L52.6519 34.7456L61.2533 35.9678C62.0277 36.0767 62.328 37.0847 61.7485 37.6361L55.5636 43.5296L57.0211 51.8359C57.1581 52.6139 56.3889 53.2233 55.7111 52.8755L48 48.9138L40.2925 52.8755H40.2943Z" fill="#FAFAFA"/>
</g>
<defs>
<linearGradient id="paint0_linear_126_287" x1="35.219" y1="18" x2="72.8427" y2="33.8294" gradientUnits="userSpaceOnUse">
<stop stop-color="#F4873D"/>
<stop offset="1" stop-color="#F43D3D"/>
<stop offset="1" stop-color="#F43D3D"/>
</linearGradient>
<linearGradient id="paint1_linear_126_287" x1="29.4095" y1="7.99999" x2="87.2673" y2="27.4739" gradientUnits="userSpaceOnUse">
<stop stop-color="#F4873D"/>
<stop offset="1" stop-color="#F43D3D"/>
<stop offset="1" stop-color="#F43D3D"/>
</linearGradient>
<clipPath id="clip0_126_287">
<rect width="28.0976" height="28.0976" fill="white" transform="translate(33.9512 25.7561)"/>
</clipPath>
</defs>
</svg>
