<svg width="20" height="21" viewBox="0 0 20 21" fill="none" xmlns="http://www.w3.org/2000/svg">
<path d="M14.1667 7.07009H15.8333C16.7538 7.07009 17.5 7.81628 17.5 8.73676V13.7368C17.5 14.6572 16.7538 15.4034 15.8333 15.4034H14.1667V18.7368L10.8333 15.4034H7.5C7.03976 15.4034 6.6231 15.2169 6.32149 14.9153M6.32149 14.9153L9.16667 12.0701H12.5C13.4205 12.0701 14.1667 11.3239 14.1667 10.4034V5.40342C14.1667 4.48295 13.4205 3.73676 12.5 3.73676H4.16667C3.24619 3.73676 2.5 4.48295 2.5 5.40342V10.4034C2.5 11.3239 3.24619 12.0701 4.16667 12.0701H5.83333V15.4034L6.32149 14.9153Z" stroke="#F4F4F5" stroke-width="2" stroke-linecap="round" stroke-linejoin="round"/>
</svg>
