<svg width="24" height="24" viewBox="0 0 24 24" fill="none" xmlns="http://www.w3.org/2000/svg">
<path d="M19.7 3H4.3C3.42479 3 2.58542 3.35558 1.96655 3.98851C1.34768 4.62145 1 5.47989 1 6.375V17.625C1 18.5201 1.34768 19.3786 1.96655 20.0115C2.58542 20.6444 3.42479 21 4.3 21H19.7C20.5752 21 21.4146 20.6444 22.0335 20.0115C22.6523 19.3786 23 18.5201 23 17.625V6.375C23 5.47989 22.6523 4.62145 22.0335 3.98851C21.4146 3.35558 20.5752 3 19.7 3ZM18.963 5.25L12 10.5938L5.037 5.25H18.963ZM19.7 18.75H4.3C4.00826 18.75 3.72847 18.6315 3.52218 18.4205C3.31589 18.2095 3.2 17.9234 3.2 17.625V6.65625L11.34 12.9C11.5304 13.0461 11.762 13.125 12 13.125C12.238 13.125 12.4696 13.0461 12.66 12.9L20.8 6.65625V17.625C20.8 17.9234 20.6841 18.2095 20.4778 18.4205C20.2715 18.6315 19.9917 18.75 19.7 18.75Z" fill="url(#paint0_linear_114_730)"/>
<defs>
<linearGradient id="paint0_linear_114_730" x1="5.60952" y1="3" x2="23.1208" y2="12.0047" gradientUnits="userSpaceOnUse">
<stop stop-color="#F4873D"/>
<stop offset="1" stop-color="#F43D3D"/>
<stop offset="1" stop-color="#F43D3D"/>
</linearGradient>
</defs>
</svg>
