<svg width="162" height="48" viewBox="0 0 162 48" fill="none" xmlns="http://www.w3.org/2000/svg">
<circle cx="24" cy="24" r="24" fill="url(#paint0_linear_8_1270)"/>
<g clip-path="url(#clip0_8_1270)">
<path d="M31.1763 13.6233C31.5283 13.8341 31.7069 14.1259 31.7069 14.5042C31.7069 14.715 31.6257 14.9474 31.4579 15.2069C31.2467 15.4663 30.976 15.596 30.6457 15.596C30.4561 15.596 30.272 15.5365 30.0825 15.4176C28.2036 14.1746 26.1514 13.553 23.9206 13.553C22.02 13.553 20.2927 13.9962 18.7441 14.888C17.2171 15.7798 16.0096 17.0337 15.1162 18.6497C14.2499 20.2441 13.8113 22.06 13.8113 24.0976C13.8113 26.1838 14.2553 28.0323 15.1487 29.6483C16.0421 31.2427 17.2496 32.4804 18.7766 33.3721C20.3252 34.2369 22.0417 34.6747 23.9152 34.6747C26.146 34.6747 28.1874 34.0639 30.0392 32.8479C30.2287 32.729 30.4291 32.6695 30.6402 32.6695C30.9705 32.6695 31.2413 32.81 31.4525 33.0911C31.6149 33.2802 31.7015 33.5018 31.7015 33.7613C31.7015 34.1342 31.5391 34.4152 31.2088 34.6044C30.2937 35.2151 29.1674 35.7286 27.83 36.1502C26.4926 36.5501 25.1876 36.7501 23.9206 36.7501C21.6897 36.7501 19.6267 36.2204 17.7261 35.1665C15.8472 34.091 14.3473 32.5884 13.2211 30.6698C12.1165 28.7511 11.5641 26.5568 11.5641 24.0976C11.5641 21.7304 12.1165 19.5901 13.2211 17.666C14.3257 15.7203 15.8147 14.2124 17.6936 13.1314C19.5725 12.0289 21.6464 11.4776 23.926 11.4776C25.2418 11.4776 26.5196 11.6668 27.765 12.0397C29.0267 12.418 30.1637 12.9477 31.1763 13.6233Z" fill="#FAFAFA"/>
<path d="M29.7847 17.0066C31.0796 17.0066 32.1293 15.9129 32.1293 14.5637C32.1293 13.2145 31.0796 12.1207 29.7847 12.1207C28.4898 12.1207 27.4401 13.2145 27.4401 14.5637C27.4401 15.9129 28.4898 17.0066 29.7847 17.0066Z" fill="#FAFAFA"/>
<path d="M12.685 26.6594C13.9798 26.6594 15.0296 25.5657 15.0296 24.2165C15.0296 22.8673 13.9798 21.7736 12.685 21.7736C11.3901 21.7736 10.3404 22.8673 10.3404 24.2165C10.3404 25.5657 11.3901 26.6594 12.685 26.6594Z" fill="#FAFAFA"/>
<path d="M18.3055 16.3635C19.6003 16.3635 20.65 15.2697 20.65 13.9205C20.65 12.5713 19.6003 11.4776 18.3055 11.4776C17.0106 11.4776 15.9609 12.5713 15.9609 13.9205C15.9609 15.2697 17.0106 16.3635 18.3055 16.3635Z" fill="#FAFAFA"/>
<path d="M18.3055 36.7501C19.6003 36.7501 20.65 35.6563 20.65 34.3071C20.65 32.9579 19.6003 31.8642 18.3055 31.8642C17.0106 31.8642 15.9609 32.9579 15.9609 34.3071C15.9609 35.6563 17.0106 36.7501 18.3055 36.7501Z" fill="#FAFAFA"/>
<path d="M29.7847 36.1772C31.0796 36.1772 32.1293 35.0834 32.1293 33.7342C32.1293 32.385 31.0796 31.2913 29.7847 31.2913C28.4898 31.2913 27.4401 32.385 27.4401 33.7342C27.4401 35.0834 28.4898 36.1772 29.7847 36.1772Z" fill="#FAFAFA"/>
</g>
<path d="M70.312 16.68C71.224 16.68 72.016 16.776 72.688 16.968C73.376 17.16 73.904 17.432 74.272 17.784C74.656 18.12 74.848 18.528 74.848 19.008C74.848 19.328 74.752 19.632 74.56 19.92C74.368 20.192 74.088 20.328 73.72 20.328C73.464 20.328 73.248 20.296 73.072 20.232C72.912 20.152 72.768 20.056 72.64 19.944C72.512 19.832 72.36 19.728 72.184 19.632C72.024 19.536 71.776 19.464 71.44 19.416C71.12 19.352 70.88 19.32 70.72 19.32C69.904 19.32 69.208 19.496 68.632 19.848C68.072 20.2 67.64 20.68 67.336 21.288C67.032 21.88 66.88 22.568 66.88 23.352C66.88 24.12 67.032 24.808 67.336 25.416C67.656 26.008 68.088 26.48 68.632 26.832C69.192 27.184 69.832 27.36 70.552 27.36C70.952 27.36 71.296 27.336 71.584 27.288C71.872 27.24 72.112 27.168 72.304 27.072C72.528 26.944 72.728 26.808 72.904 26.664C73.08 26.52 73.344 26.448 73.696 26.448C74.112 26.448 74.432 26.584 74.656 26.856C74.88 27.112 74.992 27.432 74.992 27.816C74.992 28.216 74.768 28.584 74.32 28.92C73.872 29.24 73.28 29.504 72.544 29.712C71.824 29.904 71.04 30 70.192 30C68.928 30 67.832 29.712 66.904 29.136C65.976 28.544 65.256 27.744 64.744 26.736C64.248 25.728 64 24.6 64 23.352C64 22.04 64.264 20.888 64.792 19.896C65.336 18.888 66.08 18.104 67.024 17.544C67.984 16.968 69.08 16.68 70.312 16.68Z" fill="url(#paint1_linear_8_1270)"/>
<path d="M89.5248 23.352C89.5248 24.664 89.2288 25.824 88.6368 26.832C88.0608 27.824 87.2768 28.6 86.2847 29.16C85.3088 29.72 84.2127 30 82.9967 30C81.7808 30 80.6768 29.72 79.6848 29.16C78.7088 28.6 77.9248 27.824 77.3328 26.832C76.7568 25.824 76.4688 24.664 76.4688 23.352C76.4688 22.04 76.7568 20.888 77.3328 19.896C77.9248 18.888 78.7088 18.104 79.6848 17.544C80.6768 16.968 81.7808 16.68 82.9967 16.68C84.2127 16.68 85.3088 16.968 86.2847 17.544C87.2768 18.104 88.0608 18.888 88.6368 19.896C89.2288 20.888 89.5248 22.04 89.5248 23.352ZM86.6448 23.352C86.6448 22.536 86.4768 21.832 86.1408 21.24C85.8208 20.632 85.3807 20.16 84.8207 19.824C84.2767 19.488 83.6688 19.32 82.9967 19.32C82.3247 19.32 81.7087 19.488 81.1488 19.824C80.6047 20.16 80.1647 20.632 79.8287 21.24C79.5087 21.832 79.3488 22.536 79.3488 23.352C79.3488 24.152 79.5087 24.856 79.8287 25.464C80.1647 26.056 80.6047 26.52 81.1488 26.856C81.7087 27.192 82.3247 27.36 82.9967 27.36C83.6688 27.36 84.2767 27.192 84.8207 26.856C85.3807 26.52 85.8208 26.056 86.1408 25.464C86.4768 24.856 86.6448 24.152 86.6448 23.352Z" fill="url(#paint2_linear_8_1270)"/>
<path d="M98.6453 12C98.9973 12 99.3413 12.048 99.6773 12.144C100.013 12.24 100.293 12.4 100.517 12.624C100.741 12.832 100.853 13.112 100.853 13.464C100.853 13.864 100.733 14.184 100.493 14.424C100.269 14.648 100.005 14.76 99.7013 14.76C99.5573 14.76 99.3413 14.728 99.0533 14.664C98.7653 14.584 98.4853 14.544 98.2133 14.544C97.8133 14.544 97.5013 14.632 97.2773 14.808C97.0693 14.984 96.9253 15.192 96.8453 15.432C96.7653 15.656 96.7253 15.856 96.7253 16.032V28.296C96.7253 28.712 96.5893 29.064 96.3173 29.352C96.0453 29.624 95.7013 29.76 95.2853 29.76C94.8693 29.76 94.5253 29.624 94.2533 29.352C93.9813 29.064 93.8453 28.712 93.8453 28.296V16.056C93.8453 14.92 94.2453 13.96 95.0453 13.176C95.8453 12.392 97.0453 12 98.6453 12ZM98.9093 17.16C99.2933 17.16 99.6133 17.288 99.8693 17.544C100.125 17.784 100.253 18.096 100.253 18.48C100.253 18.864 100.125 19.184 99.8693 19.44C99.6133 19.68 99.2933 19.8 98.9093 19.8H92.5493C92.1653 19.8 91.8453 19.68 91.5893 19.44C91.3333 19.184 91.2053 18.864 91.2053 18.48C91.2053 18.096 91.3333 17.784 91.5893 17.544C91.8453 17.288 92.1653 17.16 92.5493 17.16H98.9093ZM105.245 28.296C105.245 28.712 105.109 29.064 104.837 29.352C104.565 29.624 104.221 29.76 103.805 29.76C103.389 29.76 103.045 29.624 102.773 29.352C102.501 29.064 102.365 28.712 102.365 28.296V18.384C102.365 17.968 102.501 17.624 102.773 17.352C103.045 17.064 103.389 16.92 103.805 16.92C104.221 16.92 104.565 17.064 104.837 17.352C105.109 17.624 105.245 17.968 105.245 18.384V28.296ZM103.781 15.36C103.237 15.36 102.853 15.272 102.629 15.096C102.405 14.92 102.293 14.608 102.293 14.16V13.704C102.293 13.24 102.413 12.928 102.653 12.768C102.909 12.592 103.293 12.504 103.805 12.504C104.365 12.504 104.757 12.592 104.981 12.768C105.205 12.944 105.317 13.256 105.317 13.704V14.16C105.317 14.624 105.197 14.944 104.957 15.12C104.717 15.28 104.325 15.36 103.781 15.36Z" fill="url(#paint3_linear_8_1270)"/>
<path d="M108.338 17.16H114.026C114.41 17.16 114.73 17.288 114.986 17.544C115.242 17.8 115.37 18.12 115.37 18.504C115.37 18.872 115.242 19.184 114.986 19.44C114.73 19.68 114.41 19.8 114.026 19.8H108.338C107.954 19.8 107.634 19.672 107.378 19.416C107.122 19.16 106.994 18.84 106.994 18.456C106.994 18.088 107.122 17.784 107.378 17.544C107.634 17.288 107.954 17.16 108.338 17.16ZM110.906 14.16C111.322 14.16 111.658 14.304 111.914 14.592C112.186 14.864 112.322 15.208 112.322 15.624V26.304C112.322 26.528 112.362 26.712 112.442 26.856C112.538 27 112.658 27.104 112.802 27.168C112.962 27.232 113.13 27.264 113.306 27.264C113.498 27.264 113.674 27.232 113.834 27.168C113.994 27.088 114.178 27.048 114.386 27.048C114.61 27.048 114.81 27.152 114.986 27.36C115.178 27.568 115.274 27.856 115.274 28.224C115.274 28.672 115.026 29.04 114.53 29.328C114.05 29.616 113.53 29.76 112.97 29.76C112.634 29.76 112.258 29.736 111.842 29.688C111.442 29.624 111.058 29.488 110.69 29.28C110.338 29.056 110.042 28.72 109.802 28.272C109.562 27.824 109.442 27.208 109.442 26.424V15.624C109.442 15.208 109.578 14.864 109.85 14.592C110.138 14.304 110.49 14.16 110.906 14.16Z" fill="url(#paint4_linear_8_1270)"/>
<path d="M128.526 16.68C128.942 16.68 129.286 16.816 129.558 17.088C129.83 17.36 129.966 17.712 129.966 18.144V28.296C129.966 28.712 129.83 29.064 129.558 29.352C129.286 29.624 128.942 29.76 128.526 29.76C128.11 29.76 127.766 29.624 127.494 29.352C127.222 29.064 127.086 28.712 127.086 28.296V27.12L127.614 27.336C127.614 27.544 127.502 27.8 127.278 28.104C127.054 28.392 126.75 28.68 126.366 28.968C125.982 29.256 125.526 29.504 124.998 29.712C124.486 29.904 123.926 30 123.318 30C122.214 30 121.214 29.72 120.318 29.16C119.422 28.584 118.71 27.8 118.182 26.808C117.67 25.8 117.414 24.648 117.414 23.352C117.414 22.04 117.67 20.888 118.182 19.896C118.71 18.888 119.414 18.104 120.294 17.544C121.174 16.968 122.15 16.68 123.222 16.68C123.91 16.68 124.542 16.784 125.118 16.992C125.694 17.2 126.19 17.464 126.606 17.784C127.038 18.104 127.366 18.432 127.59 18.768C127.83 19.088 127.95 19.36 127.95 19.584L127.086 19.896V18.144C127.086 17.728 127.222 17.384 127.494 17.112C127.766 16.824 128.11 16.68 128.526 16.68ZM123.678 27.36C124.382 27.36 124.998 27.184 125.526 26.832C126.054 26.48 126.462 26 126.75 25.392C127.054 24.784 127.206 24.104 127.206 23.352C127.206 22.584 127.054 21.896 126.75 21.288C126.462 20.68 126.054 20.2 125.526 19.848C124.998 19.496 124.382 19.32 123.678 19.32C122.99 19.32 122.382 19.496 121.854 19.848C121.326 20.2 120.91 20.68 120.606 21.288C120.318 21.896 120.174 22.584 120.174 23.352C120.174 24.104 120.318 24.784 120.606 25.392C120.91 26 121.326 26.48 121.854 26.832C122.382 27.184 122.99 27.36 123.678 27.36Z" fill="url(#paint5_linear_8_1270)"/>
<path d="M139.732 16.68C140.852 16.68 141.852 16.968 142.732 17.544C143.628 18.104 144.332 18.88 144.844 19.872C145.372 20.864 145.636 22.016 145.636 23.328C145.636 24.64 145.372 25.8 144.844 26.808C144.332 27.8 143.636 28.584 142.756 29.16C141.892 29.72 140.916 30 139.828 30C139.188 30 138.588 29.896 138.028 29.688C137.468 29.48 136.972 29.216 136.54 28.896C136.124 28.576 135.796 28.256 135.556 27.936C135.332 27.6 135.22 27.32 135.22 27.096L135.964 26.784V33.096C135.964 33.512 135.828 33.856 135.556 34.128C135.284 34.416 134.94 34.56 134.524 34.56C134.108 34.56 133.764 34.424 133.492 34.152C133.22 33.88 133.084 33.528 133.084 33.096V18.384C133.084 17.968 133.22 17.624 133.492 17.352C133.764 17.064 134.108 16.92 134.524 16.92C134.94 16.92 135.284 17.064 135.556 17.352C135.828 17.624 135.964 17.968 135.964 18.384V19.56L135.556 19.344C135.556 19.136 135.668 18.888 135.892 18.6C136.116 18.296 136.42 18 136.804 17.712C137.188 17.408 137.628 17.16 138.124 16.968C138.636 16.776 139.172 16.68 139.732 16.68ZM139.372 19.32C138.668 19.32 138.052 19.496 137.524 19.848C136.996 20.2 136.58 20.68 136.276 21.288C135.988 21.88 135.844 22.56 135.844 23.328C135.844 24.08 135.988 24.768 136.276 25.392C136.58 26 136.996 26.48 137.524 26.832C138.052 27.184 138.668 27.36 139.372 27.36C140.076 27.36 140.684 27.184 141.196 26.832C141.724 26.48 142.132 26 142.42 25.392C142.724 24.768 142.876 24.08 142.876 23.328C142.876 22.56 142.724 21.88 142.42 21.288C142.132 20.68 141.724 20.2 141.196 19.848C140.684 19.496 140.076 19.32 139.372 19.32Z" fill="url(#paint6_linear_8_1270)"/>
<path d="M154.803 16.68C155.923 16.68 156.923 16.968 157.803 17.544C158.699 18.104 159.403 18.88 159.915 19.872C160.443 20.864 160.707 22.016 160.707 23.328C160.707 24.64 160.443 25.8 159.915 26.808C159.403 27.8 158.707 28.584 157.827 29.16C156.963 29.72 155.987 30 154.899 30C154.259 30 153.659 29.896 153.099 29.688C152.539 29.48 152.043 29.216 151.611 28.896C151.195 28.576 150.867 28.256 150.627 27.936C150.403 27.6 150.291 27.32 150.291 27.096L151.035 26.784V33.096C151.035 33.512 150.899 33.856 150.627 34.128C150.355 34.416 150.011 34.56 149.595 34.56C149.179 34.56 148.835 34.424 148.563 34.152C148.291 33.88 148.155 33.528 148.155 33.096V18.384C148.155 17.968 148.291 17.624 148.563 17.352C148.835 17.064 149.179 16.92 149.595 16.92C150.011 16.92 150.355 17.064 150.627 17.352C150.899 17.624 151.035 17.968 151.035 18.384V19.56L150.627 19.344C150.627 19.136 150.739 18.888 150.963 18.6C151.187 18.296 151.491 18 151.875 17.712C152.259 17.408 152.699 17.16 153.195 16.968C153.707 16.776 154.243 16.68 154.803 16.68ZM154.443 19.32C153.739 19.32 153.123 19.496 152.595 19.848C152.067 20.2 151.651 20.68 151.347 21.288C151.059 21.88 150.915 22.56 150.915 23.328C150.915 24.08 151.059 24.768 151.347 25.392C151.651 26 152.067 26.48 152.595 26.832C153.123 27.184 153.739 27.36 154.443 27.36C155.147 27.36 155.755 27.184 156.267 26.832C156.795 26.48 157.203 26 157.491 25.392C157.795 24.768 157.947 24.08 157.947 23.328C157.947 22.56 157.795 21.88 157.491 21.288C157.203 20.68 156.795 20.2 156.267 19.848C155.755 19.496 155.147 19.32 154.443 19.32Z" fill="url(#paint7_linear_8_1270)"/>
<defs>
<linearGradient id="paint0_linear_8_1270" x1="10.0571" y1="-5.22706e-06" x2="51.1011" y2="17.2684" gradientUnits="userSpaceOnUse">
<stop stop-color="#F4873D"/>
<stop offset="1" stop-color="#F43D3D"/>
<stop offset="1" stop-color="#F43D3D"/>
</linearGradient>
<linearGradient id="paint1_linear_8_1270" x1="84.2624" y1="12" x2="107.149" y2="53.2766" gradientUnits="userSpaceOnUse">
<stop stop-color="#F4873D"/>
<stop offset="1" stop-color="#F43D3D"/>
<stop offset="1" stop-color="#F43D3D"/>
</linearGradient>
<linearGradient id="paint2_linear_8_1270" x1="84.2624" y1="12" x2="107.149" y2="53.2766" gradientUnits="userSpaceOnUse">
<stop stop-color="#F4873D"/>
<stop offset="1" stop-color="#F43D3D"/>
<stop offset="1" stop-color="#F43D3D"/>
</linearGradient>
<linearGradient id="paint3_linear_8_1270" x1="84.2624" y1="12" x2="107.149" y2="53.2766" gradientUnits="userSpaceOnUse">
<stop stop-color="#F4873D"/>
<stop offset="1" stop-color="#F43D3D"/>
<stop offset="1" stop-color="#F43D3D"/>
</linearGradient>
<linearGradient id="paint4_linear_8_1270" x1="84.2624" y1="12" x2="107.149" y2="53.2766" gradientUnits="userSpaceOnUse">
<stop stop-color="#F4873D"/>
<stop offset="1" stop-color="#F43D3D"/>
<stop offset="1" stop-color="#F43D3D"/>
</linearGradient>
<linearGradient id="paint5_linear_8_1270" x1="84.2624" y1="12" x2="107.149" y2="53.2766" gradientUnits="userSpaceOnUse">
<stop stop-color="#F4873D"/>
<stop offset="1" stop-color="#F43D3D"/>
<stop offset="1" stop-color="#F43D3D"/>
</linearGradient>
<linearGradient id="paint6_linear_8_1270" x1="84.2624" y1="12" x2="107.149" y2="53.2766" gradientUnits="userSpaceOnUse">
<stop stop-color="#F4873D"/>
<stop offset="1" stop-color="#F43D3D"/>
<stop offset="1" stop-color="#F43D3D"/>
</linearGradient>
<linearGradient id="paint7_linear_8_1270" x1="84.2624" y1="12" x2="107.149" y2="53.2766" gradientUnits="userSpaceOnUse">
<stop stop-color="#F4873D"/>
<stop offset="1" stop-color="#F43D3D"/>
<stop offset="1" stop-color="#F43D3D"/>
</linearGradient>
<clipPath id="clip0_8_1270">
<rect width="22.2545" height="26.1589" fill="white" transform="translate(10.1454 11.0182)"/>
</clipPath>
</defs>
</svg>
