<svg width="462" height="135" viewBox="0 0 462 135" fill="none" xmlns="http://www.w3.org/2000/svg">
<path d="M0.0882568 67.5C0.0882568 30.2208 30.309 0 67.5883 0C104.867 0 135.088 30.2208 135.088 67.5C135.088 104.779 104.867 135 67.5883 135C30.309 135 0.0882568 104.779 0.0882568 67.5Z" fill="url(#paint0_linear_397_288)"/>
<path d="M92.8442 84.9862C95.2569 86.7392 95.8175 90.1514 93.7236 92.2751C89.6928 96.3634 84.7226 99.4478 79.2129 101.238C71.9825 103.587 64.194 103.587 56.9636 101.238C49.7333 98.8887 43.4323 94.3108 38.9636 88.1603C34.495 82.0097 32.0883 74.6024 32.0883 67C32.0883 59.3975 34.495 51.9902 38.9636 45.8397C43.4323 39.6892 49.7333 35.1112 56.9637 32.762C64.194 30.4127 71.9825 30.4127 79.2129 32.762C84.7227 34.5522 89.6928 37.6366 93.7236 41.7249C95.8175 43.8486 95.2569 47.2608 92.8442 49.0138C90.4314 50.7668 87.0853 50.176 84.8593 48.1912C82.2686 45.8812 79.2135 44.118 75.8755 43.0334C70.8142 41.3889 65.3623 41.3889 60.301 43.0334C55.2398 44.6779 50.8291 47.8824 47.701 52.1878C44.573 56.4932 42.8883 61.6783 42.8883 67C42.8883 72.3217 44.573 77.5068 47.701 81.8122C50.8291 86.1175 55.2398 89.3221 60.301 90.9666C65.3623 92.6111 70.8142 92.6111 75.8755 90.9666C79.2135 89.882 82.2686 88.1188 84.8593 85.8088C87.0853 83.824 90.4314 83.2333 92.8442 84.9862Z" fill="#FAFAFA"/>
<path d="M60.0883 74.4854L68.5735 66.0001L77.0588 74.4854" stroke="#FAFAFA" stroke-width="10.8" stroke-linecap="round" stroke-linejoin="round"/>
<circle cx="87.0883" cy="44" r="8" fill="#FAFAFA"/>
<g clip-path="url(#clip0_397_288)">
<path d="M189.764 42.9094C192.254 42.9094 194.537 43.2949 196.613 44.0657C198.688 44.8365 200.467 45.8149 201.949 47.0007C203.491 48.1866 204.677 49.4022 205.507 50.6473C206.396 51.8332 206.841 52.8412 206.841 53.6713L204.528 54.8276V48.3349C204.528 46.7932 205.032 45.5184 206.04 44.5104C207.048 43.4431 208.323 42.9094 209.865 42.9094C211.406 42.9094 212.681 43.4134 213.689 44.4214C214.697 45.4294 215.201 46.7339 215.201 48.3349V87.9137C215.201 93.0723 214.075 97.1932 211.822 100.277C209.628 103.419 206.722 105.672 203.105 107.036C199.488 108.459 195.605 109.171 191.454 109.171C190.268 109.171 188.726 109.022 186.829 108.726C184.932 108.429 183.123 108.074 181.404 107.659C179.684 107.244 178.38 106.858 177.49 106.502C175.711 105.732 174.466 104.753 173.755 103.567C173.103 102.441 172.984 101.225 173.399 99.9207C173.933 98.2012 174.792 97.0153 175.978 96.3631C177.164 95.7701 178.409 95.7109 179.714 96.1852C180.307 96.3631 181.285 96.7189 182.649 97.2525C184.013 97.7861 185.495 98.2605 187.096 98.6756C188.756 99.1499 190.209 99.3871 191.454 99.3871C195.901 99.3871 199.192 98.4977 201.326 96.7189C203.461 94.94 204.528 92.4793 204.528 89.3367V81.5989L205.596 82.3993C205.596 83.1702 205.181 84.1189 204.35 85.2454C203.58 86.3127 202.483 87.38 201.06 88.4473C199.696 89.5146 198.065 90.4337 196.168 91.2045C194.27 91.916 192.254 92.2718 190.12 92.2718C185.91 92.2718 182.115 91.2342 178.735 89.1589C175.356 87.0243 172.687 84.1189 170.731 80.4426C168.774 76.7071 167.796 72.4379 167.796 67.6351C167.796 62.773 168.774 58.5038 170.731 54.8276C172.687 51.092 175.326 48.1866 178.647 46.1113C181.967 43.9767 185.673 42.9094 189.764 42.9094ZM191.454 52.693C188.786 52.693 186.444 53.3452 184.428 54.6497C182.412 55.9542 180.84 57.733 179.714 59.9862C178.587 62.2393 178.024 64.789 178.024 67.6351C178.024 70.4219 178.587 72.9419 179.714 75.1951C180.84 77.4483 182.412 79.2271 184.428 80.5316C186.444 81.836 188.786 82.4883 191.454 82.4883C194.182 82.4883 196.553 81.836 198.569 80.5316C200.585 79.2271 202.157 77.4483 203.283 75.1951C204.41 72.9419 204.973 70.4219 204.973 67.6351C204.973 64.789 204.41 62.2393 203.283 59.9862C202.157 57.733 200.585 55.9542 198.569 54.6497C196.553 53.3452 194.182 52.693 191.454 52.693ZM232.073 91.3824C230.531 91.3824 229.257 90.8784 228.249 89.8704C227.241 88.8031 226.737 87.4986 226.737 85.957V49.2243C226.737 47.6826 227.241 46.4078 228.249 45.3998C229.257 44.3325 230.531 43.7989 232.073 43.7989C233.615 43.7989 234.89 44.3325 235.898 45.3998C236.906 46.4078 237.41 47.6826 237.41 49.2243V57.5847L236.787 51.6257C237.439 50.2026 238.269 48.9574 239.277 47.8902C240.345 46.7636 241.531 45.8445 242.835 45.133C244.139 44.3622 245.533 43.7989 247.015 43.4431C248.498 43.0873 249.98 42.9094 251.462 42.9094C253.241 42.9094 254.723 43.4134 255.909 44.4214C257.155 45.4294 257.777 46.6153 257.777 47.9791C257.777 49.9358 257.273 51.3589 256.265 52.2483C255.257 53.0784 254.16 53.4935 252.974 53.4935C251.848 53.4935 250.81 53.2859 249.861 52.8709C248.972 52.4558 247.934 52.2483 246.748 52.2483C245.681 52.2483 244.584 52.5151 243.458 53.0487C242.39 53.5231 241.382 54.2939 240.434 55.3612C239.544 56.4285 238.803 57.7626 238.21 59.3636C237.676 60.9052 237.41 62.7433 237.41 64.8779V85.957C237.41 87.4986 236.906 88.8031 235.898 89.8704C234.89 90.8784 233.615 91.3824 232.073 91.3824ZM309.464 67.6351C309.464 72.4972 308.367 76.796 306.173 80.5316C304.038 84.2078 301.133 87.0836 297.457 89.1589C293.84 91.2342 289.778 92.2718 285.272 92.2718C280.765 92.2718 276.674 91.2342 272.998 89.1589C269.381 87.0836 266.476 84.2078 264.282 80.5316C262.147 76.796 261.08 72.4972 261.08 67.6351C261.08 62.773 262.147 58.5038 264.282 54.8276C266.476 51.092 269.381 48.1866 272.998 46.1113C276.674 43.9767 280.765 42.9094 285.272 42.9094C289.778 42.9094 293.84 43.9767 297.457 46.1113C301.133 48.1866 304.038 51.092 306.173 54.8276C308.367 58.5038 309.464 62.773 309.464 67.6351ZM298.791 67.6351C298.791 64.6111 298.168 62.0022 296.923 59.8083C295.737 57.5551 294.107 55.8059 292.031 54.5607C290.015 53.3156 287.762 52.693 285.272 52.693C282.781 52.693 280.499 53.3156 278.423 54.5607C276.407 55.8059 274.777 57.5551 273.532 59.8083C272.346 62.0022 271.753 64.6111 271.753 67.6351C271.753 70.5998 272.346 73.2087 273.532 75.4619C274.777 77.6558 276.407 79.3753 278.423 80.6205C280.499 81.8657 282.781 82.4883 285.272 82.4883C287.762 82.4883 290.015 81.8657 292.031 80.6205C294.107 79.3753 295.737 77.6558 296.923 75.4619C298.168 73.2087 298.791 70.5998 298.791 67.6351ZM364.966 67.6351C364.966 72.4972 363.869 76.796 361.675 80.5316C359.541 84.2078 356.635 87.0836 352.959 89.1589C349.342 91.2342 345.28 92.2718 340.774 92.2718C336.268 92.2718 332.176 91.2342 328.499 89.1589C324.882 87.0836 321.977 84.2078 319.783 80.5316C317.648 76.796 316.581 72.4972 316.581 67.6351C316.581 62.773 317.648 58.5038 319.783 54.8276C321.977 51.092 324.882 48.1866 328.499 46.1113C332.176 43.9767 336.268 42.9094 340.774 42.9094C345.28 42.9094 349.342 43.9767 352.959 46.1113C356.635 48.1866 359.541 51.092 361.675 54.8276C363.869 58.5038 364.966 62.773 364.966 67.6351ZM354.293 67.6351C354.293 64.6111 353.67 62.0022 352.425 59.8083C351.239 57.5551 349.609 55.8059 347.533 54.5607C345.517 53.3156 343.264 52.693 340.774 52.693C338.284 52.693 336.001 53.3156 333.925 54.5607C331.909 55.8059 330.278 57.5551 329.033 59.8083C327.847 62.0022 327.254 64.6111 327.254 67.6351C327.254 70.5998 327.847 73.2087 329.033 75.4619C330.278 77.6558 331.909 79.3753 333.925 80.6205C336.001 81.8657 338.284 82.4883 340.774 82.4883C343.264 82.4883 345.517 81.8657 347.533 80.6205C349.609 79.3753 351.239 77.6558 352.425 75.4619C353.67 73.2087 354.293 70.5998 354.293 67.6351ZM398.765 25.5659C400.07 25.5659 401.345 25.7438 402.59 26.0996C403.835 26.4553 404.873 27.0483 405.703 27.8784C406.533 28.6492 406.948 29.6869 406.948 30.9913C406.948 32.4737 406.503 33.6596 405.614 34.549C404.784 35.3791 403.805 35.7942 402.679 35.7942C402.145 35.7942 401.345 35.6756 400.277 35.4384C399.21 35.1419 398.172 34.9937 397.164 34.9937C395.682 34.9937 394.526 35.3198 393.696 35.972C392.925 36.6243 392.391 37.3951 392.095 38.2845C391.798 39.1146 391.65 39.8558 391.65 40.508V85.957C391.65 87.4986 391.146 88.8031 390.138 89.8704C389.13 90.8784 387.855 91.3824 386.313 91.3824C384.772 91.3824 383.497 90.8784 382.489 89.8704C381.481 88.8031 380.977 87.4986 380.977 85.957V40.597C380.977 36.3871 382.459 32.8294 385.424 29.924C388.389 27.0186 392.836 25.5659 398.765 25.5659ZM399.744 44.6883C401.167 44.6883 402.353 45.1626 403.301 46.1113C404.25 47.0007 404.724 48.157 404.724 49.58C404.724 51.0031 404.25 52.189 403.301 53.1377C402.353 54.0271 401.167 54.4718 399.744 54.4718H376.174C374.751 54.4718 373.565 54.0271 372.617 53.1377C371.668 52.189 371.193 51.0031 371.193 49.58C371.193 48.157 371.668 47.0007 372.617 46.1113C373.565 45.1626 374.751 44.6883 376.174 44.6883H399.744ZM423.224 85.957C423.224 87.4986 422.72 88.8031 421.712 89.8704C420.704 90.8784 419.429 91.3824 417.888 91.3824C416.346 91.3824 415.071 90.8784 414.063 89.8704C413.055 88.8031 412.551 87.4986 412.551 85.957V49.2243C412.551 47.6826 413.055 46.4078 414.063 45.3998C415.071 44.3325 416.346 43.7989 417.888 43.7989C419.429 43.7989 420.704 44.3325 421.712 45.3998C422.72 46.4078 423.224 47.6826 423.224 49.2243V85.957ZM417.799 38.0177C415.783 38.0177 414.36 37.6916 413.529 37.0393C412.699 36.3871 412.284 35.2309 412.284 33.5706V31.8807C412.284 30.1612 412.729 29.005 413.618 28.412C414.567 27.7598 415.99 27.4337 417.888 27.4337C419.963 27.4337 421.416 27.7598 422.246 28.412C423.076 29.0643 423.491 30.2205 423.491 31.8807V33.5706C423.491 35.2902 423.046 36.476 422.157 37.1283C421.267 37.7212 419.815 38.0177 417.799 38.0177ZM434.684 44.6883H455.763C457.186 44.6883 458.372 45.1626 459.321 46.1113C460.27 47.06 460.744 48.2459 460.744 49.669C460.744 51.0327 460.27 52.189 459.321 53.1377C458.372 54.0271 457.186 54.4718 455.763 54.4718H434.684C433.261 54.4718 432.075 53.9974 431.127 53.0487C430.178 52.1 429.704 50.9142 429.704 49.4911C429.704 48.1273 430.178 47.0007 431.127 46.1113C432.075 45.1626 433.261 44.6883 434.684 44.6883ZM444.201 33.5706C445.743 33.5706 446.988 34.1043 447.937 35.1716C448.945 36.1796 449.449 37.4544 449.449 38.996V78.5749C449.449 79.405 449.597 80.0869 449.893 80.6205C450.249 81.1542 450.694 81.5396 451.227 81.7767C451.82 82.0139 452.443 82.1325 453.095 82.1325C453.807 82.1325 454.459 82.0139 455.052 81.7767C455.645 81.4803 456.327 81.332 457.097 81.332C457.928 81.332 458.669 81.7174 459.321 82.4883C460.033 83.2591 460.388 84.3264 460.388 85.6902C460.388 87.3504 459.469 88.7142 457.631 89.7814C455.852 90.8487 453.925 91.3824 451.85 91.3824C450.605 91.3824 449.211 91.2934 447.67 91.1156C446.187 90.8784 444.764 90.3744 443.401 89.6036C442.096 88.7734 440.999 87.5283 440.11 85.868C439.22 84.2078 438.776 81.925 438.776 79.0196V38.996C438.776 37.4544 439.28 36.1796 440.288 35.1716C441.355 34.1043 442.659 33.5706 444.201 33.5706Z" fill="url(#paint1_linear_397_288)"/>
</g>
<defs>
<linearGradient id="paint0_linear_397_288" x1="28.374" y1="-1.47011e-05" x2="143.81" y2="48.5674" gradientUnits="userSpaceOnUse">
<stop stop-color="#F4873D"/>
<stop offset="1" stop-color="#F43D3D"/>
<stop offset="1" stop-color="#F43D3D"/>
</linearGradient>
<linearGradient id="paint1_linear_397_288" x1="226.947" y1="32.0883" x2="271.63" y2="139.597" gradientUnits="userSpaceOnUse">
<stop stop-color="#F4873D"/>
<stop offset="1" stop-color="#F43D3D"/>
</linearGradient>
<clipPath id="clip0_397_288">
<rect width="294.824" height="84" fill="white" transform="translate(167.088 25.5)"/>
</clipPath>
</defs>
</svg>
