<svg width="149" height="48" viewBox="0 0 149 48" fill="none" xmlns="http://www.w3.org/2000/svg">
<circle cx="24" cy="24" r="24" fill="url(#paint0_linear_231_4827)"/>
<g clip-path="url(#clip0_231_4827)">
<path d="M31.1763 13.6233C31.5282 13.8341 31.7069 14.1259 31.7069 14.5042C31.7069 14.715 31.6257 14.9474 31.4578 15.2069C31.2467 15.4663 30.9759 15.596 30.6456 15.596C30.4561 15.596 30.272 15.5365 30.0825 15.4176C28.2036 14.1746 26.1514 13.553 23.9205 13.553C22.02 13.553 20.2927 13.9962 18.7441 14.888C17.2171 15.7798 16.0096 17.0337 15.1162 18.6497C14.2498 20.2441 13.8112 22.06 13.8112 24.0976C13.8112 26.1838 14.2552 28.0323 15.1487 29.6483C16.0421 31.2427 17.2496 32.4803 18.7765 33.3721C20.3252 34.2369 22.0416 34.6747 23.9151 34.6747C26.146 34.6747 28.1873 34.0639 30.0392 32.8479C30.2287 32.729 30.429 32.6695 30.6402 32.6695C30.9705 32.6695 31.2413 32.81 31.4524 33.0911C31.6149 33.2802 31.7015 33.5018 31.7015 33.7613C31.7015 34.1342 31.5391 34.4152 31.2088 34.6044C30.2937 35.2151 29.1674 35.7286 27.83 36.1502C26.4925 36.5501 25.1876 36.7501 23.9205 36.7501C21.6897 36.7501 19.6267 36.2204 17.7261 35.1665C15.8472 34.091 14.3473 32.5884 13.221 30.6698C12.1164 28.7511 11.5641 26.5568 11.5641 24.0976C11.5641 21.7304 12.1164 19.5901 13.221 17.666C14.3256 15.7203 15.8147 14.2124 17.6936 13.1314C19.5725 12.0289 21.6463 11.4776 23.9259 11.4776C25.2417 11.4776 26.5196 11.6668 27.765 12.0397C29.0266 12.418 30.1637 12.9477 31.1763 13.6233Z" fill="#FAFAFA"/>
<path d="M29.7847 17.0066C31.0795 17.0066 32.1292 15.9129 32.1292 14.5637C32.1292 13.2145 31.0795 12.1207 29.7847 12.1207C28.4898 12.1207 27.4401 13.2145 27.4401 14.5637C27.4401 15.9129 28.4898 17.0066 29.7847 17.0066Z" fill="#FAFAFA"/>
<path d="M12.685 26.6594C13.9798 26.6594 15.0296 25.5657 15.0296 24.2165C15.0296 22.8673 13.9798 21.7736 12.685 21.7736C11.3901 21.7736 10.3404 22.8673 10.3404 24.2165C10.3404 25.5657 11.3901 26.6594 12.685 26.6594Z" fill="#FAFAFA"/>
<path d="M18.3055 16.3635C19.6003 16.3635 20.65 15.2697 20.65 13.9205C20.65 12.5713 19.6003 11.4776 18.3055 11.4776C17.0106 11.4776 15.9609 12.5713 15.9609 13.9205C15.9609 15.2697 17.0106 16.3635 18.3055 16.3635Z" fill="#FAFAFA"/>
<path d="M18.3055 36.7501C19.6003 36.7501 20.65 35.6563 20.65 34.3071C20.65 32.9579 19.6003 31.8642 18.3055 31.8642C17.0106 31.8642 15.9609 32.9579 15.9609 34.3071C15.9609 35.6563 17.0106 36.7501 18.3055 36.7501Z" fill="#FAFAFA"/>
<path d="M29.7847 36.1772C31.0795 36.1772 32.1292 35.0834 32.1292 33.7343C32.1292 32.3851 31.0795 31.2913 29.7847 31.2913C28.4898 31.2913 27.4401 32.3851 27.4401 33.7343C27.4401 35.0834 28.4898 36.1772 29.7847 36.1772Z" fill="#FAFAFA"/>
</g>
<path d="M70.4788 16.9741C71.1903 16.9741 71.8426 17.0842 72.4355 17.3044C73.0285 17.5247 73.5367 17.8042 73.9602 18.143C74.4007 18.4819 74.7395 18.8292 74.9767 19.1849C75.2308 19.5237 75.3579 19.8117 75.3579 20.0489L74.6972 20.3793V18.5242C74.6972 18.0837 74.8412 17.7195 75.1292 17.4315C75.4172 17.1266 75.7814 16.9741 76.2219 16.9741C76.6623 16.9741 77.0266 17.1181 77.3146 17.4061C77.6026 17.6941 77.7466 18.0668 77.7466 18.5242V29.8324C77.7466 31.3063 77.4247 32.4837 76.7809 33.3647C76.1541 34.2626 75.324 34.9063 74.2906 35.296C73.2572 35.7026 72.1475 35.9059 70.9616 35.9059C70.6228 35.9059 70.1823 35.8635 69.6402 35.7788C69.0981 35.6941 68.5814 35.5924 68.0901 35.4739C67.5988 35.3553 67.2261 35.2452 66.972 35.1435C66.4638 34.9233 66.108 34.6437 65.9047 34.3049C65.7184 33.983 65.6845 33.6357 65.8031 33.263C65.9555 32.7717 66.2012 32.4329 66.54 32.2466C66.8788 32.0772 67.2346 32.0602 67.6073 32.1957C67.7767 32.2466 68.0562 32.3482 68.4459 32.5007C68.8355 32.6532 69.259 32.7887 69.7165 32.9073C70.1908 33.0428 70.6059 33.1106 70.9616 33.1106C72.2322 33.1106 73.1725 32.8564 73.7823 32.3482C74.3922 31.84 74.6972 31.1369 74.6972 30.239V28.0282L75.0021 28.2569C75.0021 28.4772 74.8835 28.7482 74.6463 29.0701C74.4261 29.375 74.1127 29.68 73.7061 29.9849C73.3165 30.2899 72.8506 30.5524 72.3085 30.7727C71.7663 30.976 71.1903 31.0776 70.5805 31.0776C69.3776 31.0776 68.2934 30.7812 67.3278 30.1882C66.3621 29.5783 65.5998 28.7482 65.0407 27.6979C64.4816 26.6306 64.2021 25.4108 64.2021 24.0386C64.2021 22.6494 64.4816 21.4296 65.0407 20.3793C65.5998 19.312 66.3536 18.4819 67.3024 17.8889C68.2511 17.279 69.3099 16.9741 70.4788 16.9741ZM70.9616 19.7694C70.1993 19.7694 69.5301 19.9557 68.9541 20.3284C68.3781 20.7012 67.9292 21.2094 67.6073 21.8532C67.2854 22.4969 67.1245 23.2254 67.1245 24.0386C67.1245 24.8348 67.2854 25.5548 67.6073 26.1986C67.9292 26.8423 68.3781 27.3506 68.9541 27.7233C69.5301 28.096 70.1993 28.2823 70.9616 28.2823C71.7409 28.2823 72.4186 28.096 72.9946 27.7233C73.5706 27.3506 74.0195 26.8423 74.3414 26.1986C74.6633 25.5548 74.8242 24.8348 74.8242 24.0386C74.8242 23.2254 74.6633 22.4969 74.3414 21.8532C74.0195 21.2094 73.5706 20.7012 72.9946 20.3284C72.4186 19.9557 71.7409 19.7694 70.9616 19.7694ZM82.5671 30.8235C82.1266 30.8235 81.7624 30.6795 81.4744 30.3915C81.1864 30.0866 81.0424 29.7139 81.0424 29.2734V18.7783C81.0424 18.3379 81.1864 17.9736 81.4744 17.6856C81.7624 17.3807 82.1266 17.2282 82.5671 17.2282C83.0076 17.2282 83.3718 17.3807 83.6598 17.6856C83.9478 17.9736 84.0918 18.3379 84.0918 18.7783V21.167L83.9139 19.4644C84.1003 19.0579 84.3374 18.7021 84.6254 18.3972C84.9304 18.0753 85.2692 17.8127 85.6419 17.6094C86.0146 17.3892 86.4127 17.2282 86.8363 17.1266C87.2598 17.0249 87.6833 16.9741 88.1069 16.9741C88.6151 16.9741 89.0386 17.1181 89.3774 17.4061C89.7332 17.6941 89.9111 18.0329 89.9111 18.4226C89.9111 18.9816 89.7671 19.3882 89.4791 19.6423C89.1911 19.8795 88.8777 19.9981 88.5389 19.9981C88.217 19.9981 87.9205 19.9388 87.6494 19.8202C87.3953 19.7016 87.0989 19.6423 86.76 19.6423C86.4551 19.6423 86.1417 19.7186 85.8198 19.871C85.5149 20.0066 85.2269 20.2268 84.9558 20.5317C84.7017 20.8367 84.4899 21.2179 84.3205 21.6753C84.168 22.1157 84.0918 22.6409 84.0918 23.2508V29.2734C84.0918 29.7139 83.9478 30.0866 83.6598 30.3915C83.3718 30.6795 83.0076 30.8235 82.5671 30.8235ZM104.679 24.0386C104.679 25.4277 104.365 26.656 103.738 27.7233C103.129 28.7736 102.298 29.5953 101.248 30.1882C100.215 30.7812 99.0542 31.0776 97.7667 31.0776C96.4792 31.0776 95.3102 30.7812 94.2599 30.1882C93.2265 29.5953 92.3964 28.7736 91.7695 27.7233C91.1597 26.656 90.8547 25.4277 90.8547 24.0386C90.8547 22.6494 91.1597 21.4296 91.7695 20.3793C92.3964 19.312 93.2265 18.4819 94.2599 17.8889C95.3102 17.279 96.4792 16.9741 97.7667 16.9741C99.0542 16.9741 100.215 17.279 101.248 17.8889C102.298 18.4819 103.129 19.312 103.738 20.3793C104.365 21.4296 104.679 22.6494 104.679 24.0386ZM101.629 24.0386C101.629 23.1746 101.451 22.4292 101.096 21.8023C100.757 21.1586 100.291 20.6588 99.698 20.303C99.122 19.9473 98.4782 19.7694 97.7667 19.7694C97.0552 19.7694 96.4029 19.9473 95.81 20.303C95.234 20.6588 94.7681 21.1586 94.4124 21.8023C94.0735 22.4292 93.9041 23.1746 93.9041 24.0386C93.9041 24.8856 94.0735 25.631 94.4124 26.2748C94.7681 26.9016 95.234 27.3929 95.81 27.7487C96.4029 28.1044 97.0552 28.2823 97.7667 28.2823C98.4782 28.2823 99.122 28.1044 99.698 27.7487C100.291 27.3929 100.757 26.9016 101.096 26.2748C101.451 25.631 101.629 24.8856 101.629 24.0386ZM120.536 24.0386C120.536 25.4277 120.223 26.656 119.596 27.7233C118.986 28.7736 118.156 29.5953 117.106 30.1882C116.072 30.7812 114.912 31.0776 113.624 31.0776C112.337 31.0776 111.168 30.7812 110.117 30.1882C109.084 29.5953 108.254 28.7736 107.627 27.7233C107.017 26.656 106.712 25.4277 106.712 24.0386C106.712 22.6494 107.017 21.4296 107.627 20.3793C108.254 19.312 109.084 18.4819 110.117 17.8889C111.168 17.279 112.337 16.9741 113.624 16.9741C114.912 16.9741 116.072 17.279 117.106 17.8889C118.156 18.4819 118.986 19.312 119.596 20.3793C120.223 21.4296 120.536 22.6494 120.536 24.0386ZM117.487 24.0386C117.487 23.1746 117.309 22.4292 116.953 21.8023C116.615 21.1586 116.149 20.6588 115.556 20.303C114.98 19.9473 114.336 19.7694 113.624 19.7694C112.913 19.7694 112.261 19.9473 111.668 20.303C111.092 20.6588 110.626 21.1586 110.27 21.8023C109.931 22.4292 109.762 23.1746 109.762 24.0386C109.762 24.8856 109.931 25.631 110.27 26.2748C110.626 26.9016 111.092 27.3929 111.668 27.7487C112.261 28.1044 112.913 28.2823 113.624 28.2823C114.336 28.2823 114.98 28.1044 115.556 27.7487C116.149 27.3929 116.615 26.9016 116.953 26.2748C117.309 25.631 117.487 24.8856 117.487 24.0386ZM130.193 12.0188C130.566 12.0188 130.93 12.0696 131.286 12.1713C131.642 12.2729 131.938 12.4423 132.176 12.6795C132.413 12.8997 132.531 13.1962 132.531 13.5689C132.531 13.9924 132.404 14.3313 132.15 14.5854C131.913 14.8226 131.633 14.9412 131.312 14.9412C131.159 14.9412 130.93 14.9073 130.625 14.8395C130.32 14.7548 130.024 14.7124 129.736 14.7124C129.312 14.7124 128.982 14.8056 128.745 14.992C128.525 15.1783 128.372 15.3986 128.288 15.6527C128.203 15.8899 128.16 16.1016 128.16 16.288V29.2734C128.16 29.7139 128.016 30.0866 127.728 30.3915C127.44 30.6795 127.076 30.8235 126.636 30.8235C126.195 30.8235 125.831 30.6795 125.543 30.3915C125.255 30.0866 125.111 29.7139 125.111 29.2734V16.3134C125.111 15.1106 125.535 14.0941 126.382 13.264C127.229 12.4339 128.499 12.0188 130.193 12.0188ZM130.473 17.4823C130.88 17.4823 131.218 17.6179 131.489 17.8889C131.76 18.143 131.896 18.4734 131.896 18.88C131.896 19.2866 131.76 19.6254 131.489 19.8964C131.218 20.1506 130.88 20.2776 130.473 20.2776H123.739C123.332 20.2776 122.993 20.1506 122.722 19.8964C122.451 19.6254 122.316 19.2866 122.316 18.88C122.316 18.4734 122.451 18.143 122.722 17.8889C122.993 17.6179 123.332 17.4823 123.739 17.4823H130.473ZM137.182 29.2734C137.182 29.7139 137.038 30.0866 136.75 30.3915C136.462 30.6795 136.097 30.8235 135.657 30.8235C135.216 30.8235 134.852 30.6795 134.564 30.3915C134.276 30.0866 134.132 29.7139 134.132 29.2734V18.7783C134.132 18.3379 134.276 17.9736 134.564 17.6856C134.852 17.3807 135.216 17.2282 135.657 17.2282C136.097 17.2282 136.462 17.3807 136.75 17.6856C137.038 17.9736 137.182 18.3379 137.182 18.7783V29.2734ZM135.632 15.5764C135.056 15.5764 134.649 15.4833 134.412 15.2969C134.175 15.1106 134.056 14.7802 134.056 14.3059V13.823C134.056 13.3317 134.183 13.0014 134.437 12.832C134.708 12.6456 135.115 12.5524 135.657 12.5524C136.25 12.5524 136.665 12.6456 136.902 12.832C137.139 13.0183 137.258 13.3487 137.258 13.823V14.3059C137.258 14.7972 137.131 15.136 136.877 15.3223C136.623 15.4917 136.208 15.5764 135.632 15.5764ZM140.456 17.4823H146.479C146.885 17.4823 147.224 17.6179 147.495 17.8889C147.766 18.16 147.902 18.4988 147.902 18.9054C147.902 19.295 147.766 19.6254 147.495 19.8964C147.224 20.1506 146.885 20.2776 146.479 20.2776H140.456C140.049 20.2776 139.711 20.1421 139.44 19.871C139.168 19.6 139.033 19.2612 139.033 18.8546C139.033 18.4649 139.168 18.143 139.44 17.8889C139.711 17.6179 140.049 17.4823 140.456 17.4823ZM143.175 14.3059C143.616 14.3059 143.971 14.4583 144.242 14.7633C144.53 15.0513 144.674 15.4155 144.674 15.856V27.1642C144.674 27.4014 144.717 27.5962 144.801 27.7487C144.903 27.9012 145.03 28.0113 145.183 28.079C145.352 28.1468 145.53 28.1807 145.716 28.1807C145.92 28.1807 146.106 28.1468 146.275 28.079C146.445 27.9943 146.64 27.952 146.86 27.952C147.097 27.952 147.309 28.0621 147.495 28.2823C147.698 28.5026 147.8 28.8075 147.8 29.1972C147.8 29.6715 147.537 30.0612 147.012 30.3661C146.504 30.671 145.953 30.8235 145.36 30.8235C145.005 30.8235 144.607 30.7981 144.166 30.7473C143.743 30.6795 143.336 30.5355 142.946 30.3153C142.574 30.0781 142.26 29.7223 142.006 29.248C141.752 28.7736 141.625 28.1214 141.625 27.2913V15.856C141.625 15.4155 141.769 15.0513 142.057 14.7633C142.362 14.4583 142.735 14.3059 143.175 14.3059Z" fill="url(#paint1_linear_231_4827)"/>
<defs>
<linearGradient id="paint0_linear_231_4827" x1="10.0571" y1="-5.22706e-06" x2="51.1011" y2="17.2684" gradientUnits="userSpaceOnUse">
<stop stop-color="#F4873D"/>
<stop offset="1" stop-color="#F43D3D"/>
<stop offset="1" stop-color="#F43D3D"/>
</linearGradient>
<linearGradient id="paint1_linear_231_4827" x1="81.7392" y1="12.0188" x2="108.285" y2="51.1533" gradientUnits="userSpaceOnUse">
<stop stop-color="#F4873D"/>
<stop offset="1" stop-color="#F43D3D"/>
<stop offset="1" stop-color="#F43D3D"/>
</linearGradient>
<clipPath id="clip0_231_4827">
<rect width="22.2545" height="26.1589" fill="white" transform="translate(10.1454 11.0182)"/>
</clipPath>
</defs>
</svg>
