<svg width="48" height="48" viewBox="0 0 48 48" fill="none" xmlns="http://www.w3.org/2000/svg">
<circle cx="24" cy="24" r="24" fill="url(#paint0_linear_8_1259)"/>
<g clip-path="url(#clip0_8_1259)">
<path d="M31.1763 13.6233C31.5283 13.8341 31.7069 14.1259 31.7069 14.5042C31.7069 14.715 31.6257 14.9474 31.4579 15.2069C31.2467 15.4663 30.976 15.596 30.6457 15.596C30.4561 15.596 30.272 15.5365 30.0825 15.4176C28.2036 14.1746 26.1514 13.553 23.9206 13.553C22.02 13.553 20.2927 13.9962 18.7441 14.888C17.2171 15.7798 16.0096 17.0337 15.1162 18.6497C14.2499 20.2441 13.8113 22.06 13.8113 24.0976C13.8113 26.1838 14.2553 28.0323 15.1487 29.6483C16.0421 31.2427 17.2496 32.4803 18.7766 33.3721C20.3252 34.2369 22.0417 34.6747 23.9152 34.6747C26.146 34.6747 28.1874 34.0639 30.0392 32.8479C30.2287 32.729 30.4291 32.6695 30.6402 32.6695C30.9705 32.6695 31.2413 32.81 31.4525 33.0911C31.6149 33.2802 31.7015 33.5018 31.7015 33.7613C31.7015 34.1342 31.5391 34.4152 31.2088 34.6044C30.2937 35.2151 29.1674 35.7286 27.83 36.1502C26.4926 36.5501 25.1876 36.7501 23.9206 36.7501C21.6897 36.7501 19.6267 36.2204 17.7261 35.1665C15.8472 34.091 14.3473 32.5884 13.2211 30.6698C12.1165 28.7511 11.5641 26.5568 11.5641 24.0976C11.5641 21.7304 12.1165 19.5901 13.2211 17.666C14.3257 15.7203 15.8147 14.2124 17.6936 13.1314C19.5725 12.0289 21.6464 11.4776 23.926 11.4776C25.2418 11.4776 26.5196 11.6668 27.765 12.0397C29.0267 12.418 30.1637 12.9477 31.1763 13.6233Z" fill="#FAFAFA"/>
<path d="M29.7847 17.0066C31.0796 17.0066 32.1293 15.9129 32.1293 14.5637C32.1293 13.2145 31.0796 12.1207 29.7847 12.1207C28.4898 12.1207 27.4401 13.2145 27.4401 14.5637C27.4401 15.9129 28.4898 17.0066 29.7847 17.0066Z" fill="#FAFAFA"/>
<path d="M12.685 26.6594C13.9798 26.6594 15.0296 25.5657 15.0296 24.2165C15.0296 22.8673 13.9798 21.7736 12.685 21.7736C11.3901 21.7736 10.3404 22.8673 10.3404 24.2165C10.3404 25.5657 11.3901 26.6594 12.685 26.6594Z" fill="#FAFAFA"/>
<path d="M18.3055 16.3635C19.6003 16.3635 20.65 15.2697 20.65 13.9205C20.65 12.5713 19.6003 11.4776 18.3055 11.4776C17.0106 11.4776 15.9609 12.5713 15.9609 13.9205C15.9609 15.2697 17.0106 16.3635 18.3055 16.3635Z" fill="#FAFAFA"/>
<path d="M18.3055 36.7501C19.6003 36.7501 20.65 35.6563 20.65 34.3071C20.65 32.9579 19.6003 31.8642 18.3055 31.8642C17.0106 31.8642 15.9609 32.9579 15.9609 34.3071C15.9609 35.6563 17.0106 36.7501 18.3055 36.7501Z" fill="#FAFAFA"/>
<path d="M29.7847 36.1772C31.0796 36.1772 32.1293 35.0834 32.1293 33.7342C32.1293 32.385 31.0796 31.2913 29.7847 31.2913C28.4898 31.2913 27.4401 32.385 27.4401 33.7342C27.4401 35.0834 28.4898 36.1772 29.7847 36.1772Z" fill="#FAFAFA"/>
</g>
<defs>
<linearGradient id="paint0_linear_8_1259" x1="10.0571" y1="-5.22706e-06" x2="51.1011" y2="17.2684" gradientUnits="userSpaceOnUse">
<stop stop-color="#F4873D"/>
<stop offset="1" stop-color="#F43D3D"/>
<stop offset="1" stop-color="#F43D3D"/>
</linearGradient>
<clipPath id="clip0_8_1259">
<rect width="22.2545" height="26.1589" fill="white" transform="translate(10.1454 11.0182)"/>
</clipPath>
</defs>
</svg>
