<svg width="39" height="24" viewBox="0 0 39 24" fill="none" xmlns="http://www.w3.org/2000/svg">
<path d="M0 14.0437C0 11.8079 0.593886 9.64192 1.78166 7.54585C3.0393 5.37991 4.61135 3.59825 6.49782 2.20088C8.45415 0.733625 10.4454 0 12.4716 0C13.1703 0 13.9039 0.279477 14.6725 0.83843C15.441 1.32751 15.8253 2.27074 15.8253 3.66812C15.8253 4.99564 15.3712 5.79913 14.4629 6.07861C13.6245 6.35808 12.786 6.70742 11.9476 7.12664C10.9694 7.61572 10.2009 8.24454 9.64192 9.0131C9.08297 9.71179 8.80349 10.5502 8.80349 11.5284C8.80349 12.2969 9.1179 12.9956 9.74673 13.6245C10.4454 14.1834 11.2838 14.4629 12.262 14.4629C12.7511 14.4629 13.2402 14.4279 13.7293 14.3581C14.2882 14.2183 14.7773 14.0087 15.1965 13.7293C15.8253 14.0087 16.3493 14.4279 16.7686 14.9869C17.1878 15.476 17.3974 16.2096 17.3974 17.1878C17.3275 19.0044 16.4192 20.6114 14.6725 22.0087C12.9956 23.3362 11.0044 24 8.69869 24C6.11354 24 4.01747 23.0568 2.41048 21.1703C0.803494 19.2838 0 16.9083 0 14.0437ZM21.0655 14.0437C21.0655 11.8079 21.6594 9.64192 22.8472 7.54585C24.1048 5.37991 25.6769 3.59825 27.5633 2.20088C29.5196 0.733625 31.5109 0 33.5371 0C34.2358 0 34.9694 0.279477 35.738 0.83843C36.5065 1.32751 36.8908 2.27074 36.8908 3.66812C36.8908 4.99564 36.4367 5.79913 35.5284 6.07861C34.69 6.35808 33.8515 6.70742 33.0131 7.12664C32.0349 7.61572 31.2664 8.24454 30.7074 9.0131C30.1485 9.71179 29.869 10.5502 29.869 11.5284C29.869 12.2969 30.1834 12.9956 30.8122 13.6245C31.5109 14.1834 32.3493 14.4629 33.3275 14.4629C33.8166 14.4629 34.3057 14.4279 34.7948 14.3581C35.3537 14.2183 35.8428 14.0087 36.262 13.7293C36.8908 14.0087 37.4148 14.4279 37.8341 14.9869C38.2533 15.476 38.4629 16.2096 38.4629 17.1878C38.393 19.0044 37.4847 20.6114 35.738 22.0087C34.0611 23.3362 32.0699 24 29.7642 24C27.179 24 25.083 23.0568 23.476 21.1703C21.869 19.2838 21.0655 16.9083 21.0655 14.0437Z" fill="#F9C39E"/>
</svg>
