<svg width="20" height="21" viewBox="0 0 20 21" fill="none" xmlns="http://www.w3.org/2000/svg">
<path d="M11.6667 8.73678H15.6366C16.8756 8.73678 17.6814 10.0406 17.1273 11.1488L14.2107 16.9821C13.9283 17.5468 13.3512 17.9034 12.7199 17.9034H9.37184C9.23557 17.9034 9.09982 17.8867 8.96762 17.8537L5.83333 17.0701M11.6667 8.73678V4.57011C11.6667 3.64963 10.9205 2.90344 10 2.90344H9.92044C9.50414 2.90344 9.16667 3.24092 9.16667 3.65721C9.16667 4.25247 8.99047 4.8344 8.66028 5.32968L5.83333 9.57011V17.0701M11.6667 8.73678H10M5.83333 17.0701H4.16667C3.24619 17.0701 2.5 16.3239 2.5 15.4034V10.4034C2.5 9.48297 3.24619 8.73678 4.16667 8.73678H6.25" stroke="#F4F4F5" stroke-width="2" stroke-linecap="round" stroke-linejoin="round"/>
</svg>
